<svg xmlns="http://www.w3.org/2000/svg" height="20" width="20"><path d="M14.5 18h-9q-.646 0-1.073-.438Q4 17.125 4 16.5v-13q0-.625.427-1.062Q4.854 2 5.5 2h9q.625 0 1.062.438Q16 2.875 16 3.5v13q0 .625-.438 1.062Q15.125 18 14.5 18Zm0-1.5v-13h-9v13Zm-4.5-9q.625 0 1.062-.438Q11.5 6.625 11.5 6t-.438-1.062Q10.625 4.5 10 4.5t-1.062.438Q8.5 5.375 8.5 6t.438 1.062Q9.375 7.5 10 7.5Zm0 8q1.458 0 2.479-1.021Q13.5 13.458 13.5 12q0-1.458-1.021-2.479Q11.458 8.5 10 8.5q-1.458 0-2.479 1.021Q6.5 10.542 6.5 12q0 1.458 1.021 2.479Q8.542 15.5 10 15.5Zm0-1.5q-.833 0-1.417-.583Q8 12.833 8 12q0-.833.583-1.417Q9.167 10 10 10q.833 0 1.417.583Q12 11.167 12 12q0 .833-.583 1.417Q10.833 14 10 14ZM5.5 3.5v13-13Z"/></svg>